<svg class="preloader__img" height="200" viewBox="0 0 100 100" preserveAspectRatio="xMidYMid" style="background:0 0"><g transform="rotate(-58.1 46.206 -13.206) scale(.5)"><animateTransform attributeName="transform" type="rotate" values="0;360" keyTimes="0;1" dur="1.5s" begin="0s" repeatCount="indefinite"/><path d="M37.44-6.5h11v13h-11a38 38 0 0 1-6.37 15.378l7.778 7.778-9.192 9.192-7.778-7.778A38 38 0 0 1 6.5 37.44v11h-13v-11a38 38 0 0 1-15.378-6.37l-7.778 7.778-9.192-9.192 7.778-7.778A38 38 0 0 1-37.44 6.5h-11v-13h11a38 38 0 0 1 6.37-15.378l-7.778-7.778 9.192-9.192 7.778 7.778A38 38 0 0 1-6.5-37.44v-11h13v11a38 38 0 0 1 15.378 6.37l7.778-7.778 9.192 9.192-7.778 7.778A38 38 0 0 1 37.44-6.5M0-26a26 26 0 1 0 0 52 26 26 0 1 0 0-52" fill="#9c27b0"/></g><g transform="rotate(35.6 -87.126 113.865) scale(.4)"><animateTransform attributeName="transform" type="rotate" values="360;0" keyTimes="0;1" dur="1.5s" begin="-0.09375s" repeatCount="indefinite"/><path d="M37.44-6.5h11v13h-11a38 38 0 0 1-6.37 15.378l7.778 7.778-9.192 9.192-7.778-7.778A38 38 0 0 1 6.5 37.44v11h-13v-11a38 38 0 0 1-15.378-6.37l-7.778 7.778-9.192-9.192 7.778-7.778A38 38 0 0 1-37.44 6.5h-11v-13h11a38 38 0 0 1 6.37-15.378l-7.778-7.778 9.192-9.192 7.778 7.778A38 38 0 0 1-6.5-37.44v-11h13v11a38 38 0 0 1 15.378 6.37l7.778-7.778 9.192 9.192-7.778 7.778A38 38 0 0 1 37.44-6.5M0-26a26 26 0 1 0 0 52 26 26 0 1 0 0-52" fill="#212121"/></g><g transform="rotate(-35.6 123.095 -94.47) scale(.3)"><animateTransform attributeName="transform" type="rotate" values="0;360" keyTimes="0;1" dur="1.5s" begin="-0.09375s" repeatCount="indefinite"/><path d="M37.44-6.5h11v13h-11a38 38 0 0 1-6.37 15.378l7.778 7.778-9.192 9.192-7.778-7.778A38 38 0 0 1 6.5 37.44v11h-13v-11a38 38 0 0 1-15.378-6.37l-7.778 7.778-9.192-9.192 7.778-7.778A38 38 0 0 1-37.44 6.5h-11v-13h11a38 38 0 0 1 6.37-15.378l-7.778-7.778 9.192-9.192 7.778 7.778A38 38 0 0 1-6.5-37.44v-11h13v11a38 38 0 0 1 15.378 6.37l7.778-7.778 9.192 9.192-7.778 7.778A38 38 0 0 1 37.44-6.5M0-26a26 26 0 1 0 0 52 26 26 0 1 0 0-52" fill="#6a1b9a"/></g></svg>